<?xml version="1.0" encoding="UTF-8" standalone="no"?>
<svg
   xmlns:dc="http://purl.org/dc/elements/1.1/"
   xmlns:cc="http://creativecommons.org/ns#"
   xmlns:rdf="http://www.w3.org/1999/02/22-rdf-syntax-ns#"
   xmlns:svg="http://www.w3.org/2000/svg"
   xmlns="http://www.w3.org/2000/svg"
   xmlns:sodipodi="http://sodipodi.sourceforge.net/DTD/sodipodi-0.dtd"
   xmlns:inkscape="http://www.inkscape.org/namespaces/inkscape"
   version="1.0"
   viewBox="0 0 336.98671 427.25314"
   preserveAspectRatio="xMidYMid meet"
   id="svg2"
   inkscape:version="0.48.5 r10040"
   width="100%"
   height="100%"
   sodipodi:docname="Octopus-Anchor-2015040148.svg">
  <defs
     id="defs20" />
  <sodipodi:namedview
     pagecolor="#ffffff"
     bordercolor="#666666"
     borderopacity="1"
     objecttolerance="10"
     gridtolerance="10"
     guidetolerance="10"
     inkscape:pageopacity="0"
     inkscape:pageshadow="2"
     inkscape:window-width="1366"
     inkscape:window-height="766"
     id="namedview18"
     showgrid="false"
     fit-margin-top="0"
     fit-margin-left="0"
     fit-margin-right="0"
     fit-margin-bottom="0"
     inkscape:zoom="0.73514185"
     inkscape:cx="168.53955"
     inkscape:cy="57.6578"
     inkscape:window-x="0"
     inkscape:window-y="0"
     inkscape:window-maximized="0"
     inkscape:current-layer="g4" />
  <g
     transform="matrix(0.1,0,0,-0.1,-58.960451,442.53199)"
     id="g4"
     style="fill:#ffffff;stroke:none">
    <path
       d="m 2190,4420 c -105.8056,-48.4059 -197.4548,-133.3066 -151.125,-309 32.8781,-109.1906 256.6114,-341.9233 49.6504,-380.1875 -312.8033,-6.1401 -625.6868,-1.1258 -938.5254,-0.8125 99.2414,-223.5349 552.6152,-180.6425 775.0806,-205.8972 108.164,-14.9607 272.8857,14.0657 147.0444,-141.4934 -84.9589,-89.3493 -200.2132,-318.6868 -289,-217.2344 -24.8426,110.8075 -112.2054,199.3946 -199,251.375 -156.4086,48.6765 -364.5421,38.9005 -471.8438,-112.5312 -42.3068,-52.2612 -106.5904,-165.3756 -68.0468,-245.5782 36.0255,126.7453 131.7717,236.3308 275.1718,249.7188 188.3767,46.0638 378.4197,-126.8494 313.6446,-320.1406 C 1602.8044,2792.6542 1415.2392,2673.4371 1273.5,2554.8906 1156.0994,2466.4069 1051.3788,2347.888 983,2226 c -80.61541,-206.8111 -59.92829,-453.7999 127,-548 114.7619,-84.1176 498.0247,-115.3768 407.9688,-71.5 -142.9997,-94.4492 -340.5938,-61.7566 -478.9688,8.5 -112.15631,60.9346 -187.0159,187.0868 -232,304 -33.39804,111.168 -62.10638,234.7822 -10.5,336 14.87827,119.2512 95.63383,240.0738 204.5,315 44.7776,49.1213 213.9652,180.874 40.25,115.5 C 908.39683,2592.9456 781.28004,2475.3742 707.8125,2327.5156 661.8195,2218.6489 644.08749,2088.7842 671.41602,1964.4473 703.40643,1833.7711 749.02778,1702.2925 830,1602 c 127.65511,-115.5727 287.548,-239.1618 466.875,-209.75 76.4105,2.6739 373.3617,130.3595 187.375,-58.25 -89.405,-141.7887 -87.3945,-227.0023 -44.8517,-334.56568 43.7406,-134.62207 236.2075,-172.84269 368.8361,-133.80932 77.5731,30.19992 169.4363,80.0995 227.9347,144.6324 33.7768,37.2612 51.6213,72.9891 61.5653,129.1488 C 2136.2524,1236.5181 1936.0071,1385.801 2007,1259 2069.9435,1132.3137 1905.5365,1016.4275 1781.875,981.875 1562.8996,927.75337 1482.7481,1095.9432 1600,1207 c 82.3105,117.9979 218.0612,195.7621 314,293 116.5,90.7558 229.902,205.865 395.1699,198.3633 154.3256,-5.4143 246.2556,-115.5547 361.2051,-199.1133 86.0945,-68.9207 181.5049,-157.6042 254.625,-230.25 92.259,-82.8369 175.3361,-212.3484 61,-310 -88.8867,-43.1141 -187.4137,-56.44721 -268.3028,-29.50904 -89.2688,29.7288 -140.2234,83.19464 -157.0786,177.34164 -10.1215,86.4527 121.7683,236.9619 -26.6186,130.1674 -74.7296,-108.013 -37.9543,-225.6797 37,-300 89.9787,-74.12444 135.2511,-83.7116 229,-116 132.3198,-22.30843 382.0615,-13.42476 385,174 44.2453,268.5519 -274.5445,481.3824 -84.1875,431.2969 133.0613,-69.6638 324.8283,-44.6485 465.3125,24.2031 91.4893,80.2661 196.1179,164.1943 250.375,277.125 45.997,124.6507 72.1616,213.1408 62.5,353.375 8.1004,128.4363 -29.4558,208.987 -83,302 -60.2919,103.9324 -167.7464,198.1889 -266,267 -74.2052,58.8887 -163.3262,51.401 -34,-37 97.5748,-77.4684 201.8408,-173.7927 247.875,-305.625 C 3793.7229,2152.4852 3794.0554,1976.3225 3709,1831 3644.5377,1683.1425 3485.3838,1567.6667 3326.0879,1549.4727 3231.998,1504.0182 2897.4221,1656.7677 3166,1613.5 c 182.2735,-0.6795 410.0737,55.9815 448.4434,264.5801 C 3672.6927,2185.596 3419.1481,2456.789 3200,2600 c -71.985,63.689 -142.4013,125.9842 -209.875,199.875 -77.0074,98.6372 -107.9047,184.2859 -81.0098,299.5957 1.9664,202.5055 260.8306,238.3548 404.2598,175.7793 60.29,-16.4469 148.6251,-72.9338 210.0565,-209.8131 26.8971,105.2358 -45.6966,206.1823 -123.8976,276.0659 -95.755,67.0473 -242.7975,123.8821 -360.5339,94.4972 -127.4863,-21.137 -248.0387,-128.6603 -281.2656,-254.5938 1.0403,-255.0546 -232.8928,82.5873 -304.8518,174.0242 -94.4017,118.7412 -74.2085,156.8816 54.7971,155.8255 227.8597,3.9956 872.3881,47.2543 845.3203,201.7441 -329.3956,17.5149 -579.0661,9.8108 -907.6487,13.2667 -135.875,40.133 -111.3132,122.5402 3.0237,294.2333 84.5203,97.0307 55.9158,271.0223 -28.25,335.375 -71.9173,66.3326 -139.6149,78.3517 -230.125,64.125 z m -54.1285,-323.2225 c -85.8673,152.0982 78.1957,301.1383 226.4679,182.8148 169.9235,-166.6985 -115.7729,-363.8993 -226.4679,-182.8148 z M 2280,3330 c 98.4343,-63.7339 143.5768,-187.0822 232.875,-259.375 68.6663,-108.1948 166.0181,-200.477 220.125,-303.625 63.1484,-116.6263 99.1356,-244.2664 103.8594,-378.5625 22.1958,-70.6761 -73.9171,-276.75 -110.9844,-150.3125 6.8999,166.2952 -60.7638,161.1024 -49.875,269.875 11.1513,131.7626 -27.0319,212.4182 -95,310 -81.3772,128.2429 -270.4783,140.1493 -416.25,127.125 -177.8898,-36.2366 -280.2514,-203.3768 -293.7773,-370.3672 8.3961,-215.3581 -77.8965,-162.6054 -82.2227,-369.0078 -191.3532,-17.2276 -30.6803,482.9804 33.25,581.25 38.8252,71.3743 92.4075,130.3227 142.25,198.375 102.2013,100.4073 188.5703,264.569 308.75,353.625 l 5,-2.25 z m 805,-860 c 81.4051,-76.4777 174.4787,-125.8947 245.25,-222.125 76.7705,-101.6507 181.2125,-229.3521 85.6641,-366.8438 -84.1789,-124.9766 -359.6409,-71.5925 -451.3289,0.5787 -106.8845,81.0212 -146.9298,95.0241 -13.438,184.5443 98.7436,128.4131 118.467,211.5453 92.8528,345.4708 -24.6717,41.4526 -28.7051,89.8761 41,58.375 z m -1568,-24 c -26.9092,-82.9727 -22.7764,-175.0571 -2.75,-272.7898 46.72,-174.7777 289.8508,-170.6752 121.5156,-252.2102 -117.9858,-107.2353 -306.0151,-198.0798 -444.2656,-77.375 -95.7629,77.1141 -121.8971,186.0618 -57.25,279.375 49.6314,105.4524 147.2449,187.6537 233.1711,266.4973 C 1400.9313,2404.5626 1500.9472,2515.35 1517,2446 z m 535,-166 c 74.2583,-129.5609 -271.5371,-56.3813 -82.375,25.375 29.1502,3.6882 61.546,-3.386 82.375,-25.375 z m 584,4 c 76.8285,-118.3349 -265.9513,-87.5505 -95.7656,10.5469 31.6517,8.0751 67.0454,6.1938 95.7656,-10.5469 z"
       id="path6"
       inkscape:connector-curvature="0"
       sodipodi:nodetypes="ccccccccccccccccccccccccccccscccccccccscccccccccccccccccccccccccccccccccccccccccccccccccccccccccccccccccccccc" />
    <path
       d="M 595,1642 C 565.03246,1509.7604 665.9155,1361.2325 749.125,1255.5 1000.5691,879.62804 1440.9114,626.75726 1796,460 1874.4572,419.91098 1987.935,395.50766 2053.25,323.125 2229.7691,106.51954 2369.3853,105.46438 2508.8191,269.20915 2624.6541,383.20918 2614.3912,373.25092 2750,439 c 284.5464,105.61654 1004.3872,559.74877 1166.5,981.75 27.8859,70.7268 67.7274,145.2218 22.5,229.25 -132.862,-297.5883 -213.4317,-331.4961 -300.0828,-335.8017 -207.9077,88.6891 14.2441,-76.879 -100.2096,-175.872 -244.6387,-288.91534 -541.2519,-470.2073 -990.6295,-560.81068 -212.683,-44.44464 -150.1234,47.96347 -151.3024,855.22378 20.2469,215.7628 -248.9654,218.3137 -211.9007,-5.8644 10.6848,-791.4335 42.9255,-866.33958 -107,-854.375 -406.6947,57.40184 -710.7094,266.83851 -980.7656,507.0469 -97.68205,86.7159 129.0021,230.815 -69.7344,193.8281 C 815.40767,1250.9566 714.98669,1614.5739 595,1642 z"
       id="path14"
       inkscape:connector-curvature="0"
       sodipodi:nodetypes="ccccccccccccccccc" />
  </g>
  <metadata
     id="metadata16">
    <rdf:RDF>
      <cc:Work>
        <dc:format>image/svg+xml</dc:format>
        <dc:type
           rdf:resource="http://purl.org/dc/dcmitype/StillImage" />
        <cc:license
           rdf:resource="http://creativecommons.org/licenses/publicdomain/" />
        <dc:publisher>
          <cc:Agent
             rdf:about="http://openclipart.org/">
            <dc:title>Openclipart</dc:title>
          </cc:Agent>
        </dc:publisher>
      </cc:Work>
      <cc:License
         rdf:about="http://creativecommons.org/licenses/publicdomain/">
        <cc:permits
           rdf:resource="http://creativecommons.org/ns#Reproduction" />
        <cc:permits
           rdf:resource="http://creativecommons.org/ns#Distribution" />
        <cc:permits
           rdf:resource="http://creativecommons.org/ns#DerivativeWorks" />
      </cc:License>
    </rdf:RDF>
  </metadata>
</svg>
